<svg width="56" height="55" viewBox="0 0 56 55" fill="none" xmlns="http://www.w3.org/2000/svg">
<rect x="0.5" width="55" height="55" rx="27.5" fill="white"/>
<path d="M44.4739 38.0775C44.4811 31.9355 44.4811 25.7935 44.4811 19.6515C44.4811 16.9907 44.5025 14.3298 44.4383 11.6761C44.4383 11.6333 44.4312 11.5905 44.4169 11.5549C44.2528 10.9271 43.347 10.8701 43.0403 11.4336V14.7151H38.7893V11.3694C38.7822 11.3623 38.7751 11.348 38.768 11.3409C38.447 10.8558 37.6695 10.8986 37.4841 11.4479C37.4698 11.4907 37.4627 11.5406 37.4556 11.5905C37.4484 11.669 37.4413 11.8402 37.4342 11.9187V15.7423H22.0494V11.4336V11.4265C21.7926 10.8915 21.0865 10.8843 20.7227 11.2981V14.7151H16.4646L16.4218 11.3623C16.0795 10.8487 15.245 10.8701 15.0738 11.4978C15.0595 11.5406 15.0524 11.5834 15.0524 11.6333C14.9953 16.1346 15.0524 20.7857 15.0524 25.2942C15.0524 26.0574 15.2735 26.4355 16.1722 26.1431C18.4332 25.3869 20.6942 25.4582 22.8839 26.3999C23.7683 26.7851 24.6028 27.2773 25.5871 27.798C25.7511 27.8836 25.9509 27.7766 25.9651 27.5912C25.9936 27.2274 26.0222 26.9349 26.0222 26.6424C26.0293 24.6807 26.0008 22.7118 26.0364 20.7501C26.0436 20.5147 26.1078 20.2864 26.1934 20.051C26.2932 19.7514 26.607 19.5873 26.9137 19.6658C27.1562 19.73 27.3845 19.8013 27.5842 19.9297C29.6455 21.3279 31.6925 22.7689 33.7253 24.2027C34.8023 24.9589 34.8094 25.3655 33.7538 26.1074C32.042 27.3058 30.3373 28.4971 28.6041 29.6742C27.9765 30.1022 27.8196 30.5302 28.219 31.2864C28.6327 32.0639 28.9251 32.9057 29.1034 33.7688C29.1462 33.99 29.2104 34.1683 29.2889 34.3181H37.1631C37.3272 34.3181 37.4627 34.4537 37.4627 34.6177V39.0334C37.4698 39.062 37.4698 39.0905 37.477 39.119C37.6909 39.6897 38.4755 39.7682 38.7893 39.3188V36.2727H43.0403V39.3259C43.4041 39.7967 44.1744 39.7611 44.4526 39.1975C44.4597 39.1975 44.4597 39.1904 44.4597 39.1904C44.5453 39.0049 44.4739 38.2844 44.4739 38.0775ZM20.7227 24.8733H16.4646V20.6074H20.7227V24.8733ZM20.7227 19.5944H16.4646V15.3428H20.7227V19.5944ZM43.0474 35.4167H38.7965V31.158H43.0474V35.4167ZM43.0474 30.1379H38.7965V25.8862H43.0474V30.1379ZM43.0474 24.8733H38.7965V20.6074H43.0474V24.8733ZM43.0474 19.5944H38.7965V15.3428H43.0474V19.5944Z" fill="#1C274C"/>
<path d="M31.792 39.8526C31.5922 39.61 31.1928 39.5744 30.9646 39.7884C30.8005 39.9311 30.7363 40.1451 30.665 40.3448C30.2442 41.4719 29.2029 42.3493 28.0189 42.5776C27.2771 42.7203 26.464 42.6062 25.8506 42.171C25.5225 41.9427 25.2586 41.636 25.0874 41.2793C25.1587 41.2151 25.2301 41.1509 25.3014 41.0796C25.3727 41.0154 25.444 40.9512 25.5082 40.8798C25.5867 40.8014 25.6651 40.7158 25.7365 40.6373C25.8292 40.5374 25.9148 40.4375 25.9932 40.3448C26.0788 40.2378 26.1573 40.1379 26.2357 40.0381C26.3071 39.9311 26.3855 39.8383 26.4568 39.7313C26.5353 39.61 26.6066 39.4959 26.6851 39.3746C26.7564 39.2605 26.8206 39.1464 26.8777 39.0322C26.9276 38.9466 26.9775 38.8539 27.0132 38.7683C27.056 38.6755 27.0988 38.5828 27.1487 38.4829C27.3484 38.0478 27.5053 37.5912 27.6194 37.1062C27.8192 36.3215 27.8905 35.5439 27.8619 34.7806C27.8548 34.695 27.8548 34.6094 27.8477 34.5167C27.8406 34.3883 27.8263 34.2527 27.812 34.1315C27.7978 34.0245 27.7835 33.9175 27.7692 33.8104C27.755 33.7034 27.7336 33.5964 27.7122 33.4966C27.6979 33.4252 27.6836 33.3468 27.6622 33.2826C27.6408 33.147 27.6052 33.0044 27.5553 32.876C27.5267 32.7689 27.4982 32.6691 27.4625 32.5692C27.3484 32.2197 27.22 31.8844 27.056 31.5562C26.9989 31.4421 26.949 31.3351 26.8848 31.2281C26.8277 31.1068 26.7564 30.9998 26.6851 30.8857C26.6209 30.7715 26.5496 30.6574 26.4711 30.5504C26.3213 30.3364 26.1644 30.1224 26.0004 29.9226C25.8363 29.7229 25.658 29.5232 25.4726 29.3448L25.4654 29.3377L25.1873 29.0738C25.0945 28.9881 24.9947 28.9025 24.8948 28.8241C24.7878 28.7385 24.6809 28.6529 24.5739 28.5673C24.4098 28.446 24.2386 28.3319 24.0603 28.2177C24.0247 28.1963 23.989 28.1678 23.9462 28.1464C23.8535 28.0893 23.7608 28.0322 23.6609 27.9823C23.5896 27.9466 23.5111 27.9038 23.4398 27.8682C23.3043 27.7968 23.1616 27.7255 23.019 27.6684C22.9334 27.6328 22.8478 27.59 22.7622 27.5543C22.427 27.4116 22.0775 27.2975 21.7209 27.2119C21.5925 27.1762 21.4641 27.1406 21.3286 27.1191C21.1931 27.0906 21.0647 27.0621 20.9292 27.0478C20.922 27.0478 20.9149 27.0478 20.9078 27.0407C20.6795 27.005 20.4442 26.9836 20.2016 26.9693C20.0947 26.9622 19.9948 26.9622 19.895 26.9622C19.8236 26.9551 19.7523 26.9551 19.681 26.9551C19.5383 26.9551 19.4028 26.9622 19.2602 26.9622C19.1246 26.9693 18.982 26.9836 18.8393 26.9979C18.7324 27.005 18.6254 27.0193 18.5184 27.0335C17.9834 27.1049 17.4699 27.2333 16.9778 27.4045C16.8993 27.433 16.8208 27.4616 16.7424 27.4901C16.7353 27.4901 16.7281 27.4972 16.721 27.4972C16.5355 27.5686 16.3501 27.647 16.1789 27.7326C16.0862 27.7683 16.0006 27.8182 15.9079 27.8682C15.8223 27.9181 15.7296 27.9609 15.644 28.0108C15.5584 28.0608 15.4728 28.1107 15.3872 28.1678C15.216 28.2748 15.0449 28.3818 14.8808 28.5102C14.8023 28.5673 14.7239 28.6243 14.6454 28.6885C14.5884 28.7242 14.5384 28.7741 14.4814 28.8241C14.3815 28.9097 14.2817 28.9881 14.189 29.0809C14.0962 29.1736 13.9892 29.2592 13.9037 29.352C13.8109 29.4447 13.7253 29.5374 13.6326 29.6373C13.547 29.7372 13.4543 29.837 13.3758 29.9369C13.2118 30.1367 13.0549 30.3507 12.9051 30.5647C12.8338 30.6717 12.7625 30.7858 12.6911 30.8999C12.6198 31.0141 12.5556 31.1282 12.4914 31.2424C12.4843 31.2424 12.4843 31.2424 12.4843 31.2495C12.4201 31.3636 12.363 31.4778 12.306 31.5919C12.2632 31.6775 12.2204 31.7631 12.1919 31.8558C12.1562 31.9415 12.1205 32.0271 12.0849 32.1127C12.0064 32.3124 11.9351 32.505 11.8709 32.7047C11.8638 32.719 11.8638 32.7333 11.8566 32.7547C11.821 32.8688 11.7853 32.9901 11.7568 33.1114C11.7282 33.2184 11.6997 33.3254 11.6854 33.4324C11.6213 33.6963 11.5785 33.9745 11.5499 34.2527C11.5428 34.3455 11.5285 34.4453 11.5285 34.5452C11.5285 34.5523 11.5285 34.5595 11.5214 34.5666C11.5143 34.6023 11.5071 34.6451 11.5 34.6807V35.6366C11.5143 35.7579 11.5285 35.8649 11.5428 35.9862C11.5428 36.0219 11.5499 36.0718 11.5571 36.1146C11.5785 36.2715 11.5999 36.4285 11.6284 36.5854C11.7924 37.4414 12.0563 38.219 12.413 38.9252C12.4415 38.9894 12.4772 39.0536 12.5199 39.1178C12.7553 39.5672 13.0406 39.9881 13.3687 40.3733C13.5328 40.5731 13.7111 40.7657 13.8965 40.9512C13.9821 41.0439 14.082 41.1295 14.1818 41.2222C14.7667 41.743 15.4443 42.1924 16.2146 42.5705C16.3073 42.6204 16.4072 42.6632 16.4999 42.706C16.6211 42.7631 16.7424 42.813 16.8708 42.8558C17.37 43.0484 17.8907 43.1768 18.4114 43.2553C18.6325 43.291 18.8536 43.3124 19.0818 43.3266C19.1246 43.3338 19.1674 43.348 19.2102 43.348H19.6881C20.9363 43.348 22.1203 43.0698 23.1759 42.5705C23.29 42.5848 23.4041 42.6062 23.5183 42.6418C23.7536 42.7274 23.9391 42.9058 24.1459 43.0627C24.8806 43.6405 25.8149 43.933 26.7421 43.9901C27.812 44.0543 28.9104 43.8117 29.8305 43.2624C30.7577 42.7132 31.4924 41.85 31.849 40.837C31.8989 40.7086 31.9346 40.5588 31.956 40.4233C31.9417 40.2093 31.9132 40.0095 31.792 39.8526ZM24.2101 31.6204C25.3442 31.6204 26.2571 32.5264 26.2571 33.6606C26.2643 34.7877 25.3442 35.7151 24.2244 35.7151C23.0974 35.7222 22.1631 34.802 22.1631 33.682C22.1631 32.5407 23.0832 31.6133 24.2101 31.6204ZM19.6667 28.3176C20.7936 28.3247 21.7137 29.2307 21.7137 30.3649C21.7137 31.4992 20.7794 32.4265 19.6524 32.4194C18.5255 32.4123 17.6126 31.492 17.6126 30.3649C17.6268 29.2307 18.5469 28.3176 19.6667 28.3176ZM13.0763 33.6464C13.0834 32.5193 14.0035 31.6204 15.1376 31.6204C16.2574 31.6276 17.1703 32.5478 17.1703 33.6749C17.1703 34.7949 16.2431 35.7151 15.1162 35.7151C13.9892 35.7151 13.0692 34.7877 13.0763 33.6464ZM16.8565 41.0582C15.7296 41.0653 14.8095 40.1308 14.8095 38.9894C14.8166 37.8695 15.7367 36.9635 16.8708 36.9635C17.9906 36.9635 18.8964 37.8837 18.8964 39.018C18.9107 40.1379 17.9906 41.051 16.8565 41.0582ZM19.6667 35.8221C19.2887 35.815 18.9963 35.5154 18.9963 35.1373C19.0034 34.7592 19.303 34.4667 19.681 34.4667C20.059 34.4667 20.3514 34.7735 20.3514 35.1516C20.3443 35.5296 20.0447 35.8221 19.6667 35.8221ZM20.437 39.0037C20.4442 37.8695 21.3571 36.9564 22.4769 36.9635C23.611 36.9635 24.5311 37.8837 24.5239 39.0037C24.5168 40.1308 23.5967 41.0582 22.484 41.0582C21.35 41.051 20.4299 40.1379 20.437 39.0037Z" fill="#8E93A6"/>
</svg>
